<svg xmlns="http://www.w3.org/2000/svg" xmlns:xlink="http://www.w3.org/1999/xlink" width="314.089" height="134.454" viewBox="0 0 314.089 134.454">
  <defs>
    <filter id="Path_275" x="0" y="0" width="314.089" height="134.454" filterUnits="userSpaceOnUse">
      <feOffset dy="1" input="SourceAlpha"/>
      <feGaussianBlur stdDeviation="3" result="blur"/>
      <feFlood flood-opacity="0.4"/>
      <feComposite operator="in" in2="blur"/>
      <feComposite in="SourceGraphic"/>
    </filter>
  </defs>
  <g transform="matrix(1, 0, 0, 1, 0, 0)" filter="url(#Path_275)">
    <path id="Path_275-2" data-name="Path 275" d="M-150.086-22.042l17.357.06q.3,5.405,2.1,7.9a6.234,6.234,0,0,0,5.405,2.492,6.738,6.738,0,0,0,4.745-1.712,5.724,5.724,0,0,0,1.862-4.414,5.8,5.8,0,0,0-1.291-3.874q-1.291-1.531-5.736-3.634-.961-.48-3-1.441-10.51-4.865-14.654-9.129a19.687,19.687,0,0,1-4.5-6.727,21.181,21.181,0,0,1-1.562-8.048q0-9.489,6.456-15.135t17.447-5.646q11.411,0,17.567,5.435t6.156,15.585v1.261l-17-.06q-.12-5.225-1.592-7.447A5.3,5.3,0,0,0-125.1-58.8a6.677,6.677,0,0,0-4.685,1.592,5.388,5.388,0,0,0-1.742,4.174q0,4.564,8.708,8.408,1.2.541,1.862.841,11.892,5.345,15.916,10.39t4.024,13.213q0,10.51-6.486,16.276T-126,1.862q-11.411,0-17.747-5.826T-150.086-20.3Zm76.034-12.672q0,14.654,1.291,18.348t4.835,3.694a4.81,4.81,0,0,0,4.835-3.543q1.291-3.543,1.291-18.5t-1.291-18.528a4.815,4.815,0,0,0-4.835-3.573q-3.543,0-4.835,3.724T-74.052-34.714Zm-19.7,0q0-20.3,5.826-28.468t20-8.168q14.174,0,20,8.108T-42.1-34.714q0,20.3-5.826,28.438t-20,8.138q-14.234,0-20.03-8.078T-93.751-34.714Zm82.28,29.188v3.183q0,10.45-1.021,14.654a13.912,13.912,0,0,1-3.543,6.727,13.08,13.08,0,0,1-5.5,3.153,27.7,27.7,0,0,1-8.138,1.051q-1.922,0-3.724-.12t-3.543-.36V8.348a4.966,4.966,0,0,1,.661.06,4.876,4.876,0,0,0,.6.06,4.066,4.066,0,0,0,3.844-1.862Q-30.75,4.745-30.75-3.3V-69.488h19.279ZM-30.75-76.395V-93.211h19.279v16.816ZM19.579-34.714q0,14.654,1.291,18.348t4.835,3.694a4.81,4.81,0,0,0,4.835-3.543q1.291-3.543,1.291-18.5T30.54-53.242a4.815,4.815,0,0,0-4.835-3.573q-3.543,0-4.835,3.724T19.579-34.714Zm-19.7,0q0-20.3,5.826-28.468t20-8.168q14.174,0,20,8.108T51.53-34.714q0,20.3-5.826,28.438t-20,8.138q-14.234,0-20.03-8.078T-.12-34.714Zm63-41.681V-93.211H82.16v16.816ZM62.881,0V-69.488H82.16V0ZM95.493,0V-69.488h18.2v8.228a21.679,21.679,0,0,1,7.267-7.267,18.861,18.861,0,0,1,9.549-2.342q8.048,0,11.771,5.375T146-48.467V0H126.724V-42.942q0-8.348-1.081-10.39a3.967,3.967,0,0,0-3.844-2.042,5.635,5.635,0,0,0-5.075,3.153q-1.832,3.153-1.832,8.8V0Z" transform="translate(159.09 101.21)" fill="#fff"/>
  </g>
</svg>
